<?xml version="1.0" encoding="utf-8"?>
<!-- Generator: Adobe Illustrator 21.1.0, SVG Export Plug-In . SVG Version: 6.00 Build 0)  -->
<svg version="1.1" id="图层_1" xmlns="http://www.w3.org/2000/svg" xmlns:xlink="http://www.w3.org/1999/xlink" x="0px" y="0px"
	 viewBox="0 0 100 100" style="enable-background:new 0 0 100 100;" xml:space="preserve">
<style type="text/css">
	.st0{fill:#939393;}
	.st1{fill:#333333;}
</style>
<g>
	<path class="st0" d="M16.5,20v-6.1H34c7.8,0,13.4,1.4,16.7,4.1c1.7,1.4,3,3.3,3.8,5.7c0.4,0.2,0.8,0.4,1.1,0.6
		c3.5,2.3,6.3,5.5,8.3,9.3c0.1-0.7,0.1-1.5,0.1-2.3c0-4.3-0.9-8.2-2.7-11.8S57.1,13.1,54,11c-2.1-1.3-4.6-2.3-7.6-2.9
		c-3-0.6-6.7-0.9-11.2-0.9H8.3V20H16.5z"/>
	<path class="st0" d="M46.5,55.2c2-0.4,3.8-1,5.3-1.7c0.5-1.8,0.7-3.8,0.7-6.2c0-1.3-0.1-2.6-0.3-3.7c-0.5,0.6-0.9,1.1-1.5,1.6
		c-3.3,2.8-8.9,4.2-16.8,4.2H19.6v6.8h15.6C39.7,56.1,43.5,55.8,46.5,55.2z"/>
</g>
<path class="st1" d="M35.2,23.6c4.5,0,8.2,0.3,11.2,0.9c3,0.6,5.5,1.6,7.6,2.9c3.1,2.1,5.6,4.9,7.4,8.5s2.7,7.5,2.7,11.8
	c0,4.6-0.9,8.7-2.7,12.3s-4.3,6.5-7.5,8.6c-2,1.3-4.5,2.2-7.5,2.9c-3,0.6-6.7,0.9-11.3,0.9H8.3V23.6H35.2z M34,30.3H16.5v35.4H34
	c7.9,0,13.5-1.4,16.8-4.2c3.3-2.8,4.9-7.4,4.9-13.8c0-6.2-1.7-10.7-5-13.4C47.4,31.7,41.8,30.3,34,30.3z"/>
<path class="st1" d="M65.5,65.7l-6.9-6.4l-4.1,4.4l7,6.5c-0.6,2.2,0.1,4.6,1.9,6.3l17.6,16.3c2.6,2.4,6.7,2.2,9.1-0.3
	c2.4-2.6,2.2-6.7-0.3-9.1L72,67C70.2,65.3,67.6,64.9,65.5,65.7z"/>
</svg>
